# xmcd
#
# Track frame offsets: 
#        151
#        17570
#        34029
#        48507
#        65553
#        82618
#        102961
#        115896
#        133718
#        151081
#        167974
#        185042
#        199006
#        209541
#        231026
#        243174
#        256567
#        274964
#        291910
#        305527
#        321742
#        334829
#
# Disc length: 4633 seconds
#
# Revision: 0
# Processed by: cddbd v1.5PL3 Copyright (c) Steve Scherf et al.
# Submitted via: ExactAudioCopy v0.95a4
#
DISCID=3c121716
DTITLE=Михаил Гулько - Есть только миг
DYEAR=2002
DGENRE=Country
TTITLE0=Сожженные мосты
TTITLE1=Синее небо России
TTITLE2=Прощание с Родиной
TTITLE3=Поручик Голицын
TTITLE4=Ваше благородие
TTITLE5=Институтка
TTITLE6=Мама (Поздней осенней порой)
TTITLE7=Окурочек
TTITLE8=Ванинский порт (Колыма)
TTITLE9=Березы на зоне
TTITLE10=Не печалься, любимая
TTITLE11=Белая береза
TTITLE12=Гостиница
TTITLE13=Мурка
TTITLE14=Москва Златоглавая
TTITLE15=Если я заболею
TTITLE16=Россия с нами (Господа офицеры)
TTITLE17=Есть только миг
TTITLE18=Постой, паровоз
TTITLE19=Почему ты замужем
TTITLE20=Цыганский костер
TTITLE21=Кабацкий музыкант
EXTD=
EXTT0=
EXTT1=
EXTT2=
EXTT3=
EXTT4=
EXTT5=
EXTT6=
EXTT7=
EXTT8=
EXTT9=
EXTT10=
EXTT11=
EXTT12=
EXTT13=
EXTT14=
EXTT15=
EXTT16=
EXTT17=
EXTT18=
EXTT19=
EXTT20=
EXTT21=
PLAYORDER=
